/* XPM */
static char *a1bab78250bf4bf4a9e19d7c3cb380f14SwBrni1UMULbFUM[] = {
/* columns rows colors chars-per-pixel */
"192 48 10 1 ",
"  c None",
". c #33161F",
"X c #241F20",
"o c #0B2E23",
"O c #5B3138",
"+ c #174429",
"@ c #2E6D35",
"# c #8E5252",
"$ c #AA7564",
"% c #63A941",
/* pixels */
"                                                                     @o@                                              @o@                                             @@@        @@@@           ",
"                       @@                                           +%%%%                                            @+%@@@@                                        @%%%@@@@    @@%@%@          ",
"                  %%%%++@@@ @@@@                                %%%@@+%%%+     %%%                                  @@%%%%o@@                                      @%%%%%%@+++++%%%%%%@         ",
"                 %%%%%@++@@@%@%%%%% %@@                        %%@%@@%%%%%@@  %%@%%%                              @@@%%@%%@%@@                                    @@%@%%%%%++++%%%%%%%@         ",
"              %%%%%%%%%%++%%@%%%@@@@%%%%                      %%@%@@@@%%@%+@@%%%%%@%@   %%%                     @@@@+%%%%%%@%@@                                   @%%%%%@%%@+@+@%@%%%%%%@       ",
"             %%%%@%@@@@@++o@+%@@%%%%@%%%@                     o%%+@@@@@+@++@@%%+%%%%+@@%%%%%                   @@%%@+%%%@%@%%@%@                                  +@%%%@%@@@+++@@%%%%@%%%@      ",
"             +@@%@@@@@@+++++++@@@@%@@@@%%@                    +@+@+@++++@+@@@%%%@@%%%+@@%%@%                   @%%%%@%@%%@%%%%%@@                            %%@ @@+@%%%@@@@@++@@@%%%%%@%@      ",
"            +@@@%%@@@++@%++@+++@+@@@@@@%%                    @@@@++++++++++@%%%@@@@%%+@%%@%%@                  @%@%%@+@%@@%%%%+%@                           %%%%+@++@+%@@@@@@o+@@@@%%@%%%o      ",
"           +@++@%%+@+o@%%%%@@@@+++@@@+++%                   @+@@%%%%@%%%%@+++%%@++@%%%%%%%%@@@                @%%%%%%+@@@@+%%@@+@@@@                        @%%+%+++@@@@@@@+++o+@@@@%%@@@+      ",
"           @@+++@@o++%%%%%@+o@o@o+++@@++++                  +@@%%@%%%%@%%%%@@%+%%++%+%+%%%%%@@%           @%@@%%@%@@@@+@@@@@@@++o%%@@@                      @%@@@@++o@@@+++@%%@++@@+@@%@+++     ",
"        @@@@%%o+@+++%%@@@@++++%o@@o++@++++o              @@@@@%@%%%+%@%%%%%%@+%%@@+++%%%%@%%%%%          @%%@@+%%@@@@@++@++@@++o%%@%%@@                   ++%%@o+@@o+o++o+@%%%@++++@@@+++++     ",
"       %%%%%%@+o+o+o%@@@++++++oo+oo+++oo%%%             @%%%@@%%%%@+%@@%%@%@@@+@oo@@++@@@@@%%@%         @%%%%+@%@@@@@@+%%++%++o%%%@%%+o             @@@  %+%%+o+o+@o+++++@%%@@+@+++++++++++     ",
"      %@%%%%%@@+oo+o@@o++%%+oo++o+o+o%%%%%%%           @%%%%%@@%%%@@@@@@%%@++@@@@@@@@+@@+@@@@%@         %%%%%o+@@@@++%%%@%%+++%%@%@@@o++@          %%%@@o%%%%%+++@+@@@+@+o+++o+@+o++++++++      ",
"     %@@%%@@%@+++o+@@++%%%%%o%%%+ooo%%%%@%%%%          %%%@%@@%@%@@@@@@@@%++o%%%%%%o@+++@@@@%%@         %@%@%+@+@@++@%@%%%%++@%%%@@@++%@+@        %%%%%%o%%@%%+@+@@%@@@+o+o+++o@+ooo+oo@o+++    ",
"   @@+@@%@@@@@++o+o++o+%@%%@%@@%%@o@o%@@%%%@%o      %@@@%%%%%@@@@@@@@+@+%@+o%%%%@%%%+@o+++@@%%         +%%@@@@o+%@+@%%%@@@@@++@@@@@+@%%%@o@      @@%%@%%+%@%%@@+@%%%+@o++o+++o+@oo ooooo        ",
"  %%@@++@@@@@@@+++ooo+%+@@@@@@%@@@++oo@@@@%%o      %@%+@%%%@%+@@o@@++@++@++%@%+%@%@@%%@o+++@%          @+@@@+@oo++++@@@@@@@@@o@@@@@@%%@%%%o      @%%@%%@@++%@@+oo@%@+o+oooo+oo++oo              ",
" %%%%@@@@++++++@%%%+o++@@@@@@+@@+@+@@o%%@@@o%     %%%%@@+%@+@%@@@ooo@oo++@o%%%%%@@%%%@o@++o++%        @oo@@++oo+%%%+o@@@+@@o@@+@+@+%@%+@%%o      @%%%%@@+++@@@o++++@o+oo  o@o++oo    %%%%       ",
"@@%%%@%%@%o++%%%%%%@%o++@@@@@@@@++o@o%ooo@@oo    %%%%%@@@++@@+@oo%o%%%+oo+o%%%@@++@%+%o++o+++o      +@%%oo@++o+%@%%%+o+@@@@+oo+@@++%@@@%%%@@     @+%+@o+++o@++o@+o++oo.X  .oooooo   %%@%%%%     ",
"@@%%@%%%%%%%+%%@%@@@ooo+++@@++++++o+++o@@@+++@@ @%%@%%+@+++@+@@+oo%@%+%+oo%+%%@++@%%%@%%+++o++     %@%%@%%o+++@%%%%@@@o@@+++ooo++o+@@@@@@@o@      +@@+++oo++o+++o+oooo..  .. ooo   +%%%%@%%%    ",
"o%%%@@%%%++o%%@@@@@o@@oo++++++++o+o@+++@@%%%%+@@@o%%%%%+o+@++++%%%%%%@@%oo%%%@@@@oo%%%%%%@%%o+     @@%%%@@+oo%%@%%@@@@+o++o@%@%@oo+@@@@@@+oo      @+++oo+++++oo++oo@o ..  ..o   o +@@%%%%%@@@   ",
"o%%@@@%@@@++%@@@@@+@oo+@oo+oooo+oo+%++@%%@@%%%+o@%%%@@%@@@oo++%@%%@@+%@%+ooo%%@+ooooo%@%%%%%%+o    @@%@@++@+o%%@@@@@@+++oo@%%@%%@o++@@++++o        @ooo+o+@o+@+ooo@oo O. ..O      o@+@%%@@@@+   ",
"@@@@@@@@@@+@@@@@@oooo  o..o    @ @++o++++@@@%%+%@%@%@@@@@oo+o@%%@@@@@+%@oooo%@%+oo+++%%%+%%@%%++    @++++++oo%%@+++@++++o+%@@@@@@@o+++@@++@         o o+%%%%+++o ooo. O. .O       oo@@@@@@++o   ",
" o@%o@@o@@o@@o%@oooo    . o    o  ooo+++++@@@%+@@%%@@@@@oooo+%%@%@@+@@@o@%@+o@@+oo++++++@%%%%%++     +%+ooooo%@++++++ooo+%@@@@%@@@oo+++++++        o  o%%%%@@+oo   .. ....O       oo++o@+@+@@@  ",
" +@@o@@@@oo@oo++  o. o .# o   o   ...+++++++@@++ +%%@@@ooooo@%@@@@+++@o+%%@@@o@o++++++++++++%%++      +o%%+oo+@+++++o%+@+@@%@@@@@@@o++++++            oo%++++oo    ... ..O.       o@o+++@+@%%%@ ",
"  +oooooooo+ooo    ..@o.  @   @  .. oo+++++++++   ooo@oo%%%o+@+@+++o+o%%%@%+@@@+o+%%%++++++%%@++      o@@%%+oo+oooo%%@@@@@@@@+@@+@+++oo+o              +++++o@o.   .O. ..O.   @ ...oooo+o@%%%%% ",
"     ooo+ +ooo      #..#        ..   o    o++@%%  ooooo%@%%++@@++++oo%@@@+@@+@+o+%@%%%++o+++++++     @o@@@@@oooooo@+@@+@@++@++++@+oooo+o               o++oooo.O.   .. O..   @%OO. ooo@o+o@%@%%%",
"      o    oo.        ..       .o    @     +oo    o   %@%%@%o@+++@@+%@@@@@@@@@oo%@@@@%@+oo+o++++     ooo@@@o@+o@@o@@@++++o+++++++++ooo @                +ooo o .... ..OO..  ..OO     oo+o@+%%%%+",
"      o    o ..        ..     .$o          o      o   %@%@@+@++oo+++@@@@@+++o@o%@+@@@@+o+oooo++       ooo@ooo+@@@@@+++++oooo+++oooooo  @                     o   ... O.$.O .O          o++@%%@% ",
"      @       ...       ..   #$ @          @      @   %@@@++++ooooo++++++++ooo@o@@@@@@+o  ooo          +oooo+@@@@+@++++oooooo++ooo      %                         .OO.O..OO.           o@o+@%%  ",
"                ..       OO  O                        @++++++oo  o oo+++ooooo+++++@@@ooo    o           o @ooo+@@++o+oooo..oo ..                                   O..OOOO..           ooo++@   ",
"                 .o       #OO$                         @oo++oo   o  o+oooo...  oo++++@oo    o           @  o +@++++o+o.....   .                                    OO.OO.O.             o@o@+   ",
"                  o#       OO$ %                        ooo ... o    ........   oooo+oo     @           @     +@++++o  ..O   .O                                    %.$.O.O.              ooo    ",
"                  o$O      OO@%                              #..    ....O.....   ooooo     @                   +oooo   O..  .O                                     %@OO.OO.              o      ",
"                  @ #     #OO@                                #..o..O.O..O.O..     o       @                      @     OO.oo                                       @OO.O$.                     ",
"                  @ O#    #O@                                  #@$OO.O.OOOO...     @                              @     O..Oo                                        $O..O$ %                   ",
"                     O   #$$                                    @$$$#.OOOOOO...                                    %    O$. @                                        .$O..$%                    ",
"                     O#  $$                                          .#OOOOO.O.                                         O$  @                                        .$O..%%                    ",
"                   % O$ #$.                                         %@#OOO$OO..                                         O$                                            .O.O@@                    ",
"                   %@$O#$.                                          @#..OO$OO..                                        %$.                                            .$O.O$$                   ",
"                    @OOO.                                           ##OOOO$$...                                        $O.                                          % .$OOO$.                   ",
"                    $OO.                                      %    ##OOOOO$O..                                         $..                                          %% .$.OO$O                  ",
"                   #$O.                                      %   O##.OO$O$OO.. %%                                      $.O                                           %@.$.O.$.  %               ",
"                   O$O.@%                               ####@@ ####.O$$$OOO.O.@%    @                                  O.                                         $O @@.O$..O$.%%               ",
"                    O$.@                           %% ###$$O$###....$$OOOO....@   @@@                              %  $..                                        $O$O @.OO.O.O$@  $             ",
"                    #@$O                             @#$O$O$$$$OOOOO$OOOOOO..   @@o+                                @ O$.@%                                     $OOOO$$O...OO.$O $O$    $       ",
"                     .$$                            ##$$OOOOOO$$OO$$OOO%@.... %@@o+++ @                             @O$$.O@                                    $OO..OO.$OO..$$.$.O..%.$.O$      ",
"                     .#O$                          #%+OO%oOoOOOO%@oOOO@@+o..@@o+o@@o++o@                      @+   OO$$O.... @@                         $$$$$$OOO..%..OO$%%%.OOOOO..%%O% O$     ",
"                   #OOOOO##                     ##%%oo+oo@@oo@@ooo+o+oooo++ooo+oooooo+oo@                    @+++.O@@.O..O@@@+++                      OO..OOOOO...%@@.@%%%@@@.O..O.%%@@ @ O$$   "
};
